<svg xmlns="http://www.w3.org/2000/svg" height="40px" viewBox="0 -960 960 960" width="40px" fill="#FFFFFF"><path d="M196.63-80Q115-80 57.5-137.54 0-195.07 0-276.7t57.54-139.13q57.53-57.5 139.16-57.5t139.13 57.53q57.5 57.54 57.5 139.17T335.8-137.5Q278.26-80 196.63-80Zm.04-66.67q54.66 0 92.33-37.66 37.67-37.67 37.67-92.34 0-54.66-37.67-92.33t-92.33-37.67q-54.67 0-92.34 37.67-37.66 37.67-37.66 92.33 0 54.67 37.66 92.34 37.67 37.66 92.34 37.66Zm250-57.33v-200L314-520.67q-11.33-9.66-16.67-23.05-5.33-13.39-5.33-28.17 0-14.78 5.83-27.61 5.84-12.83 16.17-23.17l116.67-116.66Q442-750.67 456.23-756q14.23-5.33 29.83-5.33 15.61 0 29.77 5.33 14.17 5.33 25.5 16.67L618.67-662q29.33 29.33 66.83 46.67Q723-598 764.67-598v66.67q-55.82 0-106.24-22-50.43-22-89.76-61.34L531.33-652l-106 106.67 88 94V-204h-66.66Zm172.72-545.33q-31.06 0-53.22-22.12Q544-793.56 544-824.61q0-31.06 22.11-53.22Q588.23-900 619.28-900t53.22 22.11q22.17 22.12 22.17 53.17t-22.12 53.22q-22.11 22.17-53.16 22.17ZM763.3-80q-81.63 0-139.13-57.54-57.5-57.53-57.5-139.16t57.53-139.13q57.54-57.5 139.17-57.5T902.5-415.8Q960-358.26 960-276.63T902.46-137.5Q844.93-80 763.3-80Zm.03-66.67q54.67 0 92.34-37.66 37.66-37.67 37.66-92.34 0-54.66-37.66-92.33-37.67-37.67-92.34-37.67-54.66 0-92.33 37.67t-37.67 92.33q0 54.67 37.67 92.34 37.67 37.66 92.33 37.66Z"/></svg>